<svg width="24" height="19" viewBox="0 0 24 19" fill="none" xmlns="http://www.w3.org/2000/svg">
<path d="M24 2.24933C23.117 2.6312 22.168 2.88838 21.172 3.00431C22.189 2.41104 22.97 1.47098 23.337 0.350697C22.386 0.900123 21.332 1.29953 20.21 1.51482C19.313 0.582547 18.032 0 16.616 0C13.437 0 11.101 2.88936 11.819 5.88879C7.728 5.68909 4.1 3.77974 1.671 0.877717C0.381 3.03353 1.002 5.85372 3.194 7.28184C2.388 7.25651 1.628 7.04122 0.965 6.68176C0.911 8.90382 2.546 10.9827 4.914 11.4454C4.221 11.6285 3.462 11.6714 2.69 11.5272C3.316 13.4327 5.134 14.8189 7.29 14.8579C5.22 16.4389 2.612 17.1452 0 16.8452C2.179 18.2061 4.768 19 7.548 19C16.69 19 21.855 11.4785 21.543 4.73247C22.505 4.05542 23.34 3.21083 24 2.24933Z" fill="white"/>
</svg>
