<svg width="24" height="20" viewBox="0 0 24 20" fill="none" xmlns="http://www.w3.org/2000/svg">
<path d="M22.675 0H1.325C0.593 0 0 0.494167 0 1.10417V18.8967C0 19.5058 0.593 20 1.325 20H12.82V12.255H9.692V9.23667H12.82V7.01083C12.82 4.4275 14.713 3.02083 17.479 3.02083C18.804 3.02083 19.942 3.10333 20.274 3.14V5.84L18.356 5.84083C16.852 5.84083 16.561 6.43667 16.561 7.31V9.2375H20.148L19.681 12.2558H16.561V20H22.677C23.407 20 24 19.5058 24 18.8958V1.10417C24 0.494167 23.407 0 22.675 0Z" fill="white"/>
</svg>
