<svg width="24" height="20" viewBox="0 0 24 20" fill="none" xmlns="http://www.w3.org/2000/svg">
<path fill-rule="evenodd" clip-rule="evenodd" d="M12 0.370193C8.741 0.370193 8.333 0.381644 7.053 0.429083C2.695 0.592665 0.273 2.57037 0.073 6.13808C0.014 7.18583 0 7.51953 0 10.1851C0 12.8507 0.014 13.1852 0.072 14.2321C0.272 17.7966 2.69 19.7775 7.052 19.9411C8.333 19.9885 8.741 20 12 20C15.259 20 15.668 19.9885 16.948 19.9411C21.302 19.7775 23.73 17.7998 23.927 14.2321C23.986 13.1852 24 12.8507 24 10.1851C24 7.51953 23.986 7.18583 23.928 6.1389C23.732 2.57773 21.311 0.593483 16.949 0.429901C15.668 0.381644 15.259 0.370193 12 0.370193ZM12.0001 2.13932C15.2041 2.13932 15.5841 2.14914 16.8501 2.19658C20.1021 2.31763 21.6211 3.57966 21.7691 6.21987C21.8271 7.25452 21.8381 7.56533 21.8381 10.1859C21.8381 12.8073 21.8261 13.1173 21.7691 14.1519C21.6201 16.7897 20.1051 18.0542 16.8501 18.1752C15.5841 18.2227 15.2061 18.2325 12.0001 18.2325C8.79611 18.2325 8.41611 18.2227 7.15111 18.1752C3.89111 18.0534 2.38011 16.7856 2.23211 14.1511C2.17411 13.1165 2.16211 12.8065 2.16211 10.1851C2.16211 7.56451 2.17511 7.25452 2.23211 6.21905C2.38111 3.57966 3.89611 2.31681 7.15111 2.19576C8.41711 2.14914 8.79611 2.13932 12.0001 2.13932ZM5.83789 10.1851C5.83789 7.40175 8.59689 5.14514 11.9999 5.14514C15.4029 5.14514 18.1619 7.40175 18.1619 10.1851C18.1619 12.9693 15.4029 15.2259 11.9999 15.2259C8.59689 15.2259 5.83789 12.9684 5.83789 10.1851ZM12 13.4567C9.791 13.4567 8 11.9927 8 10.1851C8 8.37834 9.791 6.91347 12 6.91347C14.209 6.91347 16 8.37834 16 10.1851C16 11.9927 14.209 13.4567 12 13.4567ZM16.9651 4.9464C16.9651 4.29616 17.6101 3.76861 18.4061 3.76861C19.2011 3.76861 19.8451 4.29616 19.8451 4.9464C19.8451 5.59664 19.2011 6.12419 18.4061 6.12419C17.6101 6.12419 16.9651 5.59664 16.9651 4.9464Z" fill="white"/>
</svg>
